# xmcd
#
# Track frame offsets:
#	150
#	12726
#	25445
#	35965
#	49543
#	63577
#	76176
#	87445
#	102441
#	115352
#	129335
#	145262
#	160788
#	174960
#
# Disc length: 2536 seconds
#
# Revision: 1
# Processed by: cddbd v1.5.2PL0 Copyright (c) Steve Scherf et al.
# Submitted via: audiograbber 1.83.01
#
DISCID=bd09e60e
DTITLE=Catherine Britt - Catherine Britt
DYEAR=2010
DGENRE=Country
TTITLE0=I Want You Back
TTITLE1=Down
TTITLE2=Anywhere You Are
TTITLE3=Can't Change A Thing
TTITLE4=Sweet Emmylou
TTITLE5=More Than You Are
TTITLE6=Under My Thumb
TTITLE7=Call You Back Town
TTITLE8=Holy River
TTITLE9=Sleepy Town
TTITLE10=Since You Slipped  Away
TTITLE11=Save Me
TTITLE12=Lonely
TTITLE13=Where Do You Go?
EXTD=
EXTT0=
EXTT1=
EXTT2=
EXTT3=
EXTT4=
EXTT5=
EXTT6=
EXTT7=
EXTT8=
EXTT9=
EXTT10=
EXTT11=
EXTT12=
EXTT13=
PLAYORDER=
